<?xml version="1.0" encoding="utf-8"?>
<!-- Generator: Adobe Illustrator 26.4.1, SVG Export Plug-In . SVG Version: 6.00 Build 0)  -->
<svg version="1.1" id="Camada_1" xmlns="http://www.w3.org/2000/svg" xmlns:xlink="http://www.w3.org/1999/xlink" x="0px" y="0px"
	 viewBox="108 434 855 215" style="enable-background:new 0 0 1080 1080;" xml:space="preserve">
<style type="text/css">
	.st0{fill:#E62168;}
	.st1{fill:#2E2D76;}
	.st2{fill:#F7F7FA;}
	.st3{fill:#FF0066;}
	.st4{fill:#302979;}
	.st5{fill:#0A6BF2;}
	.st6{clip-path:url(#SVGID_00000125562936158926179610000017664939033361731218_);}
	.st7{clip-path:url(#SVGID_00000094577993640721235890000010729008853933489575_);}
	.st8{fill:#FFFFFF;}
	.st9{clip-path:url(#SVGID_00000106853159750610775660000000308284340179974558_);}
	.st10{clip-path:url(#SVGID_00000074418347317978025070000008746231964863713689_);}
	.st11{clip-path:url(#SVGID_00000121266277198482692220000007756171697017971897_);}
	.st12{clip-path:url(#SVGID_00000029008709496721374790000010841172000030667961_);}
</style>
<g>
	<g>
		<path class="st0" d="M551.66,623.73v14.1c-1.33,0.67-2.95,1.19-4.86,1.58c-1.9,0.39-3.84,0.58-5.82,0.58
			c-3.03,0-5.66-0.61-7.88-1.81c-2.22-1.21-3.93-2.95-5.11-5.21c-1.18-2.27-1.77-4.96-1.77-8.07c0-3.09,0.59-5.76,1.77-8.03
			c1.18-2.27,2.86-4,5.05-5.21c2.18-1.21,4.75-1.81,7.69-1.81c2.06,0,3.99,0.3,5.8,0.9c1.81,0.6,3.31,1.45,4.5,2.57l-1.79,3.88
			c-1.36-1.06-2.7-1.81-4.02-2.27c-1.32-0.46-2.77-0.69-4.36-0.69c-3.03,0-5.32,0.9-6.86,2.69c-1.54,1.79-2.32,4.46-2.32,7.99
			c0,7.23,3.17,10.84,9.51,10.84c1.89,0,3.78-0.26,5.67-0.79v-7.38h-6.34v-3.84H551.66z"/>
		<path class="st0" d="M561.88,639.62v-29.4h19.68v4.25h-14.43v8.09h13.59v4.21h-13.59v8.59h14.43v4.25H561.88z"/>
		<path class="st0" d="M593.82,639.08c-1.97-0.61-3.64-1.47-5-2.58l1.79-3.92c1.42,1.08,2.91,1.88,4.48,2.38
			c1.57,0.5,3.27,0.75,5.11,0.75c2.03,0,3.59-0.35,4.69-1.06c1.1-0.71,1.65-1.7,1.65-2.98c0-1.11-0.51-1.96-1.52-2.54
			c-1.01-0.58-2.7-1.14-5.07-1.67c-2.45-0.53-4.44-1.14-5.96-1.83c-1.53-0.69-2.68-1.58-3.46-2.67c-0.78-1.09-1.17-2.46-1.17-4.13
			c0-1.72,0.47-3.27,1.42-4.63c0.94-1.36,2.28-2.42,4-3.19c1.72-0.76,3.71-1.15,5.96-1.15c2.06,0,4.02,0.31,5.88,0.94
			c1.86,0.63,3.39,1.48,4.59,2.57l-1.79,3.92c-2.61-2.09-5.5-3.13-8.67-3.13c-1.89,0-3.39,0.38-4.48,1.15
			c-1.1,0.77-1.65,1.83-1.65,3.19c0,1.14,0.49,2.02,1.46,2.63c0.97,0.61,2.63,1.18,4.96,1.71c2.47,0.56,4.48,1.17,6.02,1.86
			c1.54,0.68,2.73,1.55,3.55,2.61c0.82,1.06,1.23,2.39,1.23,4c0,1.75-0.47,3.29-1.4,4.61c-0.93,1.32-2.28,2.34-4.05,3.04
			c-1.77,0.71-3.84,1.06-6.24,1.06C597.91,640,595.79,639.69,593.82,639.08z"/>
		<path class="st0" d="M627.26,639.62v-24.98h-9.59v-4.42h24.56v4.42h-9.59v24.98H627.26z"/>
		<path class="st0" d="M668.92,639.62l-2.96-6.88h-14.3l-2.96,6.88h-5.42l13.3-29.4h4.38l13.3,29.4H668.92z M652.87,603.05
			c0.78-0.94,1.79-1.42,3.04-1.42c0.53,0,1.03,0.1,1.5,0.31c0.47,0.21,1.07,0.52,1.79,0.94c0.53,0.33,0.97,0.58,1.33,0.75
			c0.36,0.17,0.71,0.25,1.04,0.25c0.56,0,0.99-0.19,1.29-0.58c0.3-0.39,0.48-0.9,0.54-1.54h2.38c0,1.81-0.39,3.19-1.17,4.15
			c-0.78,0.96-1.79,1.44-3.05,1.44c-0.53,0-1.04-0.11-1.54-0.33c-0.5-0.22-1.08-0.54-1.75-0.96c-0.64-0.36-1.12-0.62-1.44-0.77
			c-0.32-0.15-0.63-0.23-0.94-0.23c-0.56,0-0.99,0.2-1.29,0.61c-0.31,0.4-0.49,0.93-0.54,1.56h-2.38
			C651.7,605.39,652.09,604,652.87,603.05z M653.41,628.57h10.76l-5.38-12.51L653.41,628.57z"/>
		<path class="st0" d="M686.29,638.17c-2.1-1.22-3.72-2.98-4.86-5.25c-1.14-2.28-1.71-4.95-1.71-8.01s0.56-5.72,1.69-7.99
			c1.12-2.27,2.74-4.01,4.86-5.23c2.11-1.22,4.6-1.83,7.46-1.83c2.86,0,5.34,0.61,7.44,1.83c2.1,1.22,3.71,2.97,4.84,5.23
			c1.13,2.27,1.69,4.93,1.69,7.99s-0.57,5.73-1.71,8.01c-1.14,2.28-2.76,4.03-4.86,5.25c-2.1,1.22-4.57,1.83-7.4,1.83
			C690.87,640,688.39,639.39,686.29,638.17z M700.05,632.91c1.51-1.86,2.27-4.53,2.27-8.01c0-3.47-0.76-6.14-2.27-7.99
			s-3.62-2.77-6.32-2.77c-2.72,0-4.84,0.93-6.36,2.77c-1.52,1.85-2.27,4.51-2.27,7.99c0,3.47,0.76,6.14,2.27,8.01
			c1.51,1.86,3.63,2.79,6.36,2.79C696.43,635.7,698.54,634.77,700.05,632.91z"/>
		<path class="st0" d="M738.54,638.14c-2.15-1.24-3.81-3-4.96-5.27c-1.16-2.28-1.73-4.94-1.73-7.97s0.58-5.68,1.73-7.94
			c1.15-2.27,2.81-4.02,4.96-5.25s4.68-1.86,7.57-1.86c1.97,0,3.84,0.31,5.59,0.92c1.75,0.61,3.22,1.48,4.42,2.59l-1.79,3.92
			c-1.33-1.06-2.66-1.83-3.96-2.32c-1.31-0.48-2.7-0.73-4.17-0.73c-2.83,0-5.02,0.92-6.57,2.75c-1.54,1.83-2.32,4.48-2.32,7.92
			c0,3.47,0.77,6.13,2.32,7.97c1.54,1.83,3.73,2.75,6.57,2.75c1.47,0,2.86-0.24,4.17-0.73c1.31-0.49,2.63-1.26,3.96-2.31l1.79,3.92
			c-1.2,1.11-2.67,1.97-4.42,2.58c-1.75,0.61-3.61,0.92-5.59,0.92C743.22,640,740.7,639.38,738.54,638.14z"/>
		<path class="st0" d="M770.32,638.17c-2.1-1.22-3.72-2.98-4.86-5.25c-1.14-2.28-1.71-4.95-1.71-8.01s0.56-5.72,1.69-7.99
			s2.74-4.01,4.86-5.23c2.11-1.22,4.6-1.83,7.46-1.83c2.86,0,5.34,0.61,7.44,1.83c2.1,1.22,3.71,2.97,4.84,5.23
			c1.12,2.27,1.69,4.93,1.69,7.99s-0.57,5.73-1.71,8.01c-1.14,2.28-2.76,4.03-4.86,5.25c-2.1,1.22-4.57,1.83-7.4,1.83
			C774.9,640,772.42,639.39,770.32,638.17z M784.08,632.91c1.51-1.86,2.27-4.53,2.27-8.01c0-3.47-0.76-6.14-2.27-7.99
			s-3.62-2.77-6.32-2.77c-2.72,0-4.84,0.93-6.36,2.77c-1.52,1.85-2.27,4.51-2.27,7.99c0,3.47,0.76,6.14,2.27,8.01
			c1.51,1.86,3.63,2.79,6.36,2.79C780.46,635.7,782.57,634.77,784.08,632.91z"/>
		<path class="st0" d="M825.81,610.23h4.21v29.4h-4.75v-19.43l-7.76,14.68h-3.59l-7.8-14.47l0.04,19.22h-4.76v-29.4h4.25
			l10.09,19.22L825.81,610.23z"/>
		<path class="st0" d="M880.68,639.62h-5.84l-5.05-9.38c-0.47-0.89-1.06-1.51-1.75-1.88c-0.7-0.36-1.57-0.54-2.63-0.54h-4.08v11.8
			h-5.3v-29.4h13.01c3.34,0,5.87,0.74,7.61,2.23c1.74,1.49,2.61,3.64,2.61,6.44c0,2.25-0.63,4.11-1.9,5.57s-3.05,2.41-5.36,2.86
			c1.56,0.42,2.81,1.51,3.75,3.29L880.68,639.62z M872.76,622.55c0.95-0.76,1.42-1.94,1.42-3.52c0-1.61-0.47-2.79-1.42-3.52
			c-0.94-0.74-2.43-1.11-4.46-1.11h-7.01v9.3h7.01C870.33,623.69,871.82,623.31,872.76,622.55z"/>
		<path class="st0" d="M889.19,639.62v-29.4h19.27v4.29h-13.97v8.01h13.14v4.3h-13.14v12.8H889.19z"/>
		<path class="st0" d="M916.96,639.62v-29.4h5.38v29.4H916.96z"/>
		<path class="st0" d="M932.85,610.23h10.84c4.81,0,8.54,1.29,11.2,3.86c2.65,2.57,3.98,6.18,3.98,10.82s-1.33,8.26-3.98,10.84
			c-2.66,2.59-6.39,3.88-11.2,3.88h-10.84V610.23z M943.36,635.24c6.75,0,10.13-3.45,10.13-10.34c0-6.87-3.38-10.3-10.13-10.3h-5.13
			v20.64H943.36z"/>
	</g>
	<g>
		<path class="st0" d="M223.14,544.32L223.14,544.32c-1.96-1.96-3.07-4.63-3.07-7.4v-18.47c0-2.26-1.83-4.09-4.09-4.09H191.2
			c-2.26,0-4.09,1.83-4.09,4.09v24.79c0,2.26,1.83,4.09,4.09,4.09h18.47c2.78,0,5.44,1.1,7.4,3.07h0c1.95,1.95,3.05,4.6,3.05,7.37
			v18.49c0,2.26,1.83,4.09,4.09,4.09H249c2.26,0,4.09-1.83,4.09-4.09v-24.79c0-2.26-1.83-4.09-4.09-4.09h-18.49
			C227.75,547.37,225.1,546.27,223.14,544.32z"/>
		<g>
			<path class="st1" d="M183.01,580.33h-57.79c-2.26,0-4.1-1.83-4.1-4.1v-57.79c0-38.7,31.37-70.07,70.07-70.07h57.79
				c2.26,0,4.1,1.83,4.1,4.1v57.79c0,2.26-1.83,4.1-4.1,4.1h-24.76c-2.26,0-4.1-1.83-4.1-4.1v-26.43c0-1.38-1.12-2.5-2.5-2.5H191.2
				c-20.5,0-37.12,16.62-37.12,37.12v26.43c0,1.38,1.12,2.5,2.5,2.5h26.43c2.26,0,4.1,1.83,4.1,4.1v24.76
				C187.1,578.5,185.27,580.33,183.01,580.33z"/>
		</g>
		<g>
			<path class="st1" d="M368.39,492.37v-10.12h25.83v95.66h-25.83v-9.78c-8.15,8.15-17.98,12.22-29.5,12.22
				c-13.62,0-24.9-4.83-33.86-14.49c-8.85-9.66-13.27-21.76-13.27-36.31c0-14.2,4.48-26.07,13.44-35.61
				c8.84-9.43,20.08-14.14,33.69-14.14C350.41,479.8,360.24,483.99,368.39,492.37z M319.16,529.9c0,7.1,2.27,13.15,6.81,18.16
				c4.77,4.89,10.65,7.33,17.63,7.33c7.1,0,12.97-2.5,17.63-7.51c4.77-5.12,7.16-11.11,7.16-17.98c0-6.86-2.39-12.8-7.16-17.8
				c-4.77-4.89-10.65-7.33-17.63-7.33s-12.86,2.44-17.63,7.33C321.43,516.98,319.16,522.91,319.16,529.9z"/>
			<path class="st1" d="M472.25,550.67l7.68,21.82c-8.15,5.24-17.92,7.86-29.33,7.86c-22.81,0-34.21-12.86-34.21-38.58v-36.83
				h-15.19v-22.69h15.36v-33.86h27.23v33.86h30.72v22.69H443.8v34.22c0,10.82,4.25,16.23,12.74,16.23
				C460.96,555.38,466.2,553.81,472.25,550.67z"/>
			<path class="st1" d="M527.58,580.34c-13.96,0-24.93-3.84-32.9-11.52c-7.97-7.68-11.96-18.33-11.96-31.94v-54.64h27.41v54.81
				c0,5.59,1.54,10.01,4.62,13.27c3.08,3.26,7.36,4.89,12.83,4.89c5.47,0,9.74-1.63,12.83-4.89c3.08-3.26,4.63-7.68,4.63-13.27
				v-54.81h27.4v54.64c0,13.85-3.96,24.56-11.87,32.12C552.66,576.56,541.66,580.34,527.58,580.34z"/>
			<path class="st1" d="M657.11,492.37v-10.12h25.83v95.66h-25.83v-9.78c-8.15,8.15-17.98,12.22-29.5,12.22
				c-13.62,0-24.9-4.83-33.86-14.49c-8.85-9.66-13.27-21.76-13.27-36.31c0-14.2,4.48-26.07,13.44-35.61
				c8.84-9.43,20.08-14.14,33.69-14.14C639.13,479.8,648.96,483.99,657.11,492.37z M607.88,529.9c0,7.1,2.27,13.15,6.81,18.16
				c4.77,4.89,10.65,7.33,17.63,7.33c7.1,0,12.97-2.5,17.63-7.51c4.77-5.12,7.16-11.11,7.16-17.98c0-6.86-2.39-12.8-7.16-17.8
				c-4.77-4.89-10.65-7.33-17.63-7.33c-6.98,0-12.86,2.44-17.63,7.33C610.15,516.98,607.88,522.91,607.88,529.9z"/>
			<path class="st1" d="M721.17,445.06V577.9h-27.41V445.06H721.17z"/>
			<path class="st1" d="M746.61,472.47c-4.66,0-8.55-1.54-11.7-4.62c-3.14-3.08-4.71-6.95-4.71-11.61c0-4.65,1.57-8.52,4.71-11.61
				c3.14-3.08,7.04-4.62,11.7-4.62c4.54,0,8.38,1.54,11.52,4.62c3.14,3.09,4.71,6.96,4.71,11.61c0,4.66-1.57,8.53-4.71,11.61
				C754.99,470.93,751.15,472.47,746.61,472.47z M760.05,482.24v95.66h-27.4v-95.66H760.05z"/>
			<path class="st1" d="M851.17,501.44l-44.51,53.76h46.43v22.69h-84.14v-19.03l45.56-53.76h-43.47v-22.69h80.12V501.44z"/>
			<path class="st1" d="M933.04,492.37v-10.12h25.83v95.66h-25.83v-9.78c-8.15,8.15-17.98,12.22-29.5,12.22
				c-13.62,0-24.9-4.83-33.86-14.49c-8.85-9.66-13.27-21.76-13.27-36.31c0-14.2,4.48-26.07,13.44-35.61
				c8.84-9.43,20.08-14.14,33.69-14.14C915.06,479.8,924.89,483.99,933.04,492.37z M883.81,529.9c0,7.1,2.27,13.15,6.81,18.16
				c4.77,4.89,10.65,7.33,17.63,7.33c7.1,0,12.97-2.5,17.63-7.51c4.77-5.12,7.16-11.11,7.16-17.98c0-6.86-2.39-12.8-7.16-17.8
				c-4.77-4.89-10.65-7.33-17.63-7.33c-6.98,0-12.86,2.44-17.63,7.33C886.08,516.98,883.81,522.91,883.81,529.9z"/>
		</g>
	</g>
</g>
<g>
	<g>
		<defs>
			<rect id="SVGID_00000176016858183127069480000012565078320121128109_" x="-1031" y="1100" width="1080" height="1080"/>
		</defs>
		<clipPath id="SVGID_00000078759552573171201120000017402238954251403682_">
			<use xlink:href="#SVGID_00000176016858183127069480000012565078320121128109_"  style="overflow:visible;"/>
		</clipPath>
	</g>
</g>
</svg>
