<?xml version="1.0" encoding="utf-8"?>
<!-- Generator: Adobe Illustrator 26.4.1, SVG Export Plug-In . SVG Version: 6.00 Build 0)  -->
<svg version="1.1" id="Camada_1" xmlns="http://www.w3.org/2000/svg" xmlns:xlink="http://www.w3.org/1999/xlink" x="0px" y="0px"
	 viewBox="281 281 518 518" style="enable-background:new 281 281 795 795;" xml:space="preserve">
<style type="text/css">
	.st0{fill:#E62168;}
	.st1{fill:#2E2D76;}
	.st2{fill:#F7F7FA;}
	.st3{fill:#FF0066;}
	.st4{fill:#302979;}
	.st5{fill:#0A6BF2;}
	.st6{clip-path:url(#SVGID_00000093138527145821224120000016313151202281679291_);}
	.st7{clip-path:url(#SVGID_00000024714891260084298940000003645250043141633411_);}
	.st8{fill:#FFFFFF;}
	.st9{clip-path:url(#SVGID_00000086664133431533153990000018154791208113545879_);}
	.st10{clip-path:url(#SVGID_00000165956994226036335280000010340501497843220646_);}
	.st11{clip-path:url(#SVGID_00000018222226894566916690000014572544965273097856_);}
	.st12{clip-path:url(#SVGID_00000157308421968658640700000014740393009386896828_);}
</style>
<g>
	<g>
		<path class="st0" d="M676.53,653.5L676.53,653.5c-7.44-7.44-11.62-17.53-11.62-28.04v-69.97c0-8.57-6.95-15.51-15.51-15.51h-93.91
			c-8.57,0-15.51,6.95-15.51,15.51v93.91c0,8.57,6.95,15.51,15.51,15.51h69.97c10.52,0,20.61,4.18,28.04,11.62l0,0
			c7.4,7.4,11.56,17.44,11.56,27.91v70.05c0,8.57,6.95,15.51,15.51,15.51h93.91c8.57,0,15.51-6.95,15.51-15.51v-93.91
			c0-8.57-6.95-15.51-15.51-15.51h-70.05C693.97,665.06,683.93,660.91,676.53,653.5z"/>
		<g>
			<path class="st2" d="M524.46,789.96H305.52c-8.57,0-15.52-6.95-15.52-15.52V555.5C290,408.87,408.87,290,555.5,290h218.95
				c8.57,0,15.52,6.95,15.52,15.52v218.95c0,8.57-6.95,15.52-15.52,15.52h-93.82c-8.57,0-15.52-6.95-15.52-15.52V424.33
				c0-5.23-4.24-9.47-9.47-9.47H555.5c-77.67,0-140.64,62.97-140.64,140.64v100.14c0,5.23,4.24,9.47,9.47,9.47h100.14
				c8.57,0,15.52,6.95,15.52,15.52v93.82C539.98,783.01,533.03,789.96,524.46,789.96z"/>
		</g>
	</g>
</g>
</svg>
